<?xml version="1.0" standalone="no"?>
<!DOCTYPE svg PUBLIC "-//W3C//DTD SVG 20010904//EN"
 "http://www.w3.org/TR/2001/REC-SVG-20010904/DTD/svg10.dtd">
<svg version="1.0" xmlns="http://www.w3.org/2000/svg"
 width="1024.000000pt" height="1024.000000pt" viewBox="0 0 1024.000000 1024.000000"
 preserveAspectRatio="xMidYMid meet">

<g transform="translate(0.000000,1024.000000) scale(0.100000,-0.100000)"
fill="#000000" stroke="none">
<path d="M1435 9900 c-4 -6 -11 -8 -16 -5 -5 4 -9 2 -9 -4 0 -6 -7 -7 -17 -4
-10 4 -14 2 -10 -4 4 -5 -5 -15 -19 -22 -20 -9 -24 -9 -18 1 5 7 -3 6 -16 -4
-14 -9 -23 -22 -22 -30 2 -7 0 -10 -4 -5 -11 11 -53 -33 -47 -49 3 -9 0 -14
-8 -12 -7 2 -14 -3 -15 -9 -1 -7 -2 -18 -3 -24 0 -5 -5 -8 -10 -5 -5 3 -12 -1
-15 -10 -3 -9 -2 -12 4 -9 6 4 3 -9 -6 -29 -10 -19 -21 -33 -25 -31 -3 3 -9
-4 -12 -15 -3 -11 -1 -18 3 -15 4 3 6 -4 3 -15 -3 -11 -10 -17 -16 -13 -6 4
-8 0 -4 -10 3 -10 2 -17 -3 -17 -5 0 -7 -15 -5 -32 4 -27 4 -29 -5 -13 -8 16
-9 10 -7 -27 1 -25 -2 -44 -7 -41 -5 4 -7 -15 -4 -42 3 -26 3 -42 -2 -36 -9
15 -23 -140 -14 -165 4 -14 3 -15 -4 -6 -7 10 -11 2 -16 -28 -3 -23 -3 -46 0
-52 5 -7 2 -8 -6 -3 -10 6 -12 3 -8 -13 4 -12 2 -20 -3 -16 -8 5 -13 -12 -12
-43 1 -7 -3 -10 -8 -7 -8 5 -13 -16 -10 -43 1 -6 -6 -17 -16 -25 -10 -7 -19
-20 -21 -28 -2 -8 -9 -18 -15 -22 -16 -10 7 -54 32 -61 12 -3 19 -1 16 3 -3 4
4 6 15 3 11 -3 17 -10 13 -16 -4 -6 0 -8 10 -4 10 3 17 2 17 -2 0 -5 10 -7 23
-4 18 4 19 3 7 -7 -12 -9 -4 -10 37 -7 29 2 50 0 47 -5 -10 -16 128 -13 158 3
17 9 48 94 48 132 0 10 -17 39 -39 65 -46 56 -66 93 -81 154 -7 27 -17 45 -26
45 -10 0 -12 -6 -8 -16 15 -35 10 -66 -12 -69 -26 -4 -38 22 -24 48 13 24 13
41 -1 38 -19 -5 -49 46 -55 95 -8 56 12 87 57 87 22 0 41 17 105 93 42 50 88
109 102 130 13 20 28 37 31 37 4 0 20 -14 37 -31 37 -39 95 -73 165 -98 103
-36 146 -60 170 -96 20 -29 30 -35 60 -35 42 0 59 -15 59 -52 0 -33 -24 -95
-45 -118 -12 -13 -12 -22 -3 -47 15 -41 -3 -69 -34 -52 -19 10 -20 21 -3 62 5
12 2 17 -9 17 -11 0 -16 -9 -16 -27 0 -48 -45 -126 -104 -182 -32 -30 -51 -51
-42 -48 12 5 16 0 16 -17 0 -31 20 -87 38 -108 17 -20 64 -23 171 -12 40 5 58
10 49 15 -8 5 1 6 21 2 23 -4 32 -3 28 5 -5 6 1 8 15 4 16 -4 19 -2 13 8 -6
10 -3 12 13 8 12 -4 22 -2 22 3 0 4 6 6 13 3 7 -2 21 3 32 12 11 8 13 13 5 9
-8 -4 -5 2 7 12 16 13 20 22 13 33 -5 8 -15 15 -22 15 -7 0 -13 9 -13 20 0 11
-6 19 -12 18 -7 -2 -12 0 -12 5 4 24 -2 42 -13 36 -6 -4 -8 -3 -5 3 9 15 -13
74 -24 67 -6 -3 -7 6 -4 23 5 22 4 25 -5 13 -9 -12 -11 -8 -6 18 3 20 2 31 -4
27 -6 -4 -8 12 -5 42 4 34 3 42 -4 28 -7 -14 -8 -3 -4 34 5 42 3 52 -6 46 -10
-5 -11 -2 -6 14 3 12 3 47 -1 79 -5 43 -9 52 -15 37 -6 -13 -6 -6 -3 18 5 28
2 43 -11 57 -11 12 -14 26 -10 41 5 16 4 19 -6 14 -9 -6 -11 -3 -6 8 8 21 -2
49 -14 41 -5 -3 -6 3 -2 12 5 13 3 15 -7 9 -9 -5 -11 -4 -6 4 10 16 -3 53 -16
45 -7 -4 -8 -2 -4 4 9 16 -52 104 -66 96 -6 -4 -8 -3 -5 3 4 6 -3 19 -16 29
-21 19 -21 19 -7 -1 15 -19 15 -19 -11 0 -15 11 -25 24 -22 29 3 4 -3 6 -13 2
-11 -3 -26 -1 -34 5 -12 9 -11 10 5 4 15 -5 17 -3 8 6 -6 6 -36 12 -65 11 -40
0 -47 2 -28 8 16 5 -18 8 -92 9 -69 1 -119 -3 -123 -9z m32 -6 c-3 -3 -12 -4
-19 -1 -8 3 -5 6 6 6 11 1 17 -2 13 -5z"/>
<path d="M1358 9488 c-45 -16 -32 -23 42 -23 73 0 88 9 44 25 -31 12 -50 12
-86 -2z"/>
<path d="M1638 9484 c-16 -16 -6 -19 62 -20 45 0 67 3 60 10 -12 12 -112 21
-122 10z"/>
<path d="M1401 9416 c-7 -8 -11 -30 -9 -48 2 -25 8 -33 23 -33 16 0 21 8 23
36 4 42 -18 68 -37 45z"/>
<path d="M1677 9414 c-12 -13 -8 -71 7 -83 20 -17 38 10 34 51 -3 31 -25 48
-41 32z"/>
<path d="M1550 9245 c0 -25 5 -45 10 -45 6 0 10 20 10 45 0 25 -4 45 -10 45
-5 0 -10 -20 -10 -45z"/>
<path d="M1480 9116 c16 -16 115 -19 143 -5 24 13 18 14 -63 14 -54 0 -85 -4
-80 -9z"/>
<path d="M1420 8966 c0 -2 8 -10 18 -17 15 -13 16 -12 3 4 -13 16 -21 21 -21
13z"/>
<path d="M1655 8919 c-16 -10 -25 -19 -19 -19 7 0 22 9 35 20 30 24 23 24 -16
-1z"/>
<path d="M1528 8913 c7 -3 16 -2 19 1 4 3 -2 6 -13 5 -11 0 -14 -3 -6 -6z"/>
<path d="M1538 8893 c7 -3 16 -2 19 1 4 3 -2 6 -13 5 -11 0 -14 -3 -6 -6z"/>
</g>
</svg>
