<?xml version="1.0" encoding="UTF-8"?>
<svg version="1.1" xmlns="http://www.w3.org/2000/svg" width="2002" height="2002">
<path d="M0 0 C660.66 0 1321.32 0 2002 0 C2002 660.66 2002 1321.32 2002 2002 C1341.34 2002 680.68 2002 0 2002 C0 1341.34 0 680.68 0 0 Z " fill="#E8C8C3" transform="translate(0,0)"/>
<path d="M0 0 C1.34706123 0.20594026 2.69423074 0.41117345 4.04150391 0.61572266 C16.39056234 2.50701236 28.67724663 4.55387894 40.6875 8.04296875 C43.70730349 8.91543556 46.73778427 9.67184891 49.79638672 10.39453125 C101.80384408 22.78865526 153.14927982 48.41309453 196 80 C196.56783203 80.41620605 197.13566406 80.83241211 197.72070312 81.26123047 C218.54252556 96.55497072 237.60165973 113.53217988 255.875 131.75 C256.37336365 132.24568481 256.87172729 132.74136963 257.38519287 133.2520752 C263.1428278 138.986227 268.7622397 144.78259657 274 151 C274.53496094 151.62825684 275.06992188 152.25651367 275.62109375 152.90380859 C296.13344726 177.1272787 313.68485104 203.21157034 329 231 C329.38816895 231.69125977 329.77633789 232.38251953 330.17626953 233.09472656 C335.56224588 242.69034978 340.21241782 252.60730735 344.75 262.625 C345.29325928 263.81609375 345.83651855 265.0071875 346.39624023 266.234375 C349.67269566 273.56799391 352.39754457 280.91010663 354.85375977 288.54370117 C355.83701168 291.50853553 356.91245697 294.3769235 358.10546875 297.26171875 C376.49611925 342.05378432 383.23810029 396.11940896 383.1875 444.25 C383.18722809 445.22155029 383.18695618 446.19310059 383.18667603 447.1940918 C383.15931817 468.47981316 381.96969621 489.36028172 378.43847656 510.37646484 C377.95211794 513.28649257 377.48734 516.19959226 377.0234375 519.11328125 C376.68311242 521.22148682 376.34197843 523.32956199 376 525.4375 C375.76917725 526.87536865 375.76917725 526.87536865 375.53369141 528.34228516 C374.32368272 535.6387002 372.73549632 542.81173222 371 550 C370.6601709 551.42807983 370.6601709 551.42807983 370.31347656 552.88500977 C363.28989967 581.84340877 352.75657503 610.09350188 340 637 C339.52739746 637.9988623 339.05479492 638.99772461 338.56787109 640.02685547 C324.98919691 668.46726388 308.35154763 695.13101454 289 720 C287.94232422 721.36125 287.94232422 721.36125 286.86328125 722.75 C274.9412005 737.84001702 262.11448003 752.07300823 248.52050781 765.66479492 C246.99513287 767.19237416 245.47799328 768.72783582 243.9609375 770.26367188 C238.41941892 775.83656471 232.74180184 781.00705768 226.58520508 785.91040039 C224.13008873 787.89485037 221.78549328 789.95598971 219.44921875 792.078125 C214.78528207 796.26767507 209.84847104 800.0216278 204.8125 803.75 C203.94947266 804.39582031 203.08644531 805.04164063 202.19726562 805.70703125 C197.87260293 808.92984798 193.52621352 812.06648027 189 815 C190.13632617 820.21472454 191.33167478 825.40997246 192.5859375 830.59765625 C195.47319847 842.59386368 198.29426539 854.58222588 200.375 866.75 C200.5301709 867.62664307 200.6853418 868.50328613 200.84521484 869.40649414 C203.25105541 884.24068213 203.21022755 899.44547737 203.1875 914.4375 C203.18656342 915.24825989 203.18562683 916.05901978 203.18466187 916.89434814 C203.15512534 928.73311325 202.80192561 940.28423878 201 952 C200.75805908 953.70349609 200.75805908 953.70349609 200.51123047 955.44140625 C198.1552282 971.99869117 195.16940947 988.05677235 190 1004 C189.54418439 1005.47873937 189.08973141 1006.95789954 188.63671875 1008.4375 C176.93517641 1045.85323379 158.0089508 1080.83120991 133 1111 C131.80503906 1112.45599609 131.80503906 1112.45599609 130.5859375 1113.94140625 C120.26005802 1126.41123477 109.34408464 1138.4968699 97 1149 C96.06542969 1149.82242187 95.13085938 1150.64484375 94.16796875 1151.4921875 C66.3840967 1175.76402818 34.77979731 1192.72703166 1 1207 C-0.14855469 1207.495 -1.29710937 1207.99 -2.48046875 1208.5 C-19.83047892 1215.61795289 -38.58137733 1219.74158444 -57 1223 C-57.7955127 1223.14421387 -58.59102539 1223.28842773 -59.41064453 1223.43701172 C-61.77224163 1223.86312494 -64.13542092 1224.27827977 -66.5 1224.6875 C-67.18118896 1224.80706055 -67.86237793 1224.92662109 -68.56420898 1225.04980469 C-81.89450425 1227.26270105 -95.27805509 1227.20361872 -108.75 1227.1875 C-110.2576593 1227.18609512 -110.2576593 1227.18609512 -111.79577637 1227.18466187 C-135.53406253 1227.13664409 -157.79081526 1225.26755376 -181 1220 C-181.8760791 1219.80535156 -182.7521582 1219.61070313 -183.65478516 1219.41015625 C-204.96921395 1214.62132468 -225.33205552 1207.48192073 -245 1198 C-245.69496582 1197.67032227 -246.38993164 1197.34064453 -247.10595703 1197.00097656 C-261.66282464 1190.07917372 -275.677029 1182.07121062 -289 1173 C-292.75310882 1174.55765927 -295.09417913 1176.8779944 -297.921875 1179.76171875 C-298.38555481 1180.23060013 -298.84923462 1180.69948151 -299.32696533 1181.18257141 C-300.80617025 1182.67951598 -302.27852701 1184.18295749 -303.75 1185.6875 C-309.44279382 1191.48926041 -315.10952045 1197.26205119 -321.296875 1202.54418945 C-323.63698709 1204.54448882 -325.87371854 1206.65073433 -328.125 1208.75 C-333.33152235 1213.49754517 -338.77392239 1217.85026442 -344.34765625 1222.15625 C-346.78143274 1224.03828383 -349.18163069 1225.95297522 -351.55859375 1227.90625 C-360.60874585 1235.32786524 -370.04016853 1242.00750804 -379.77197266 1248.50537109 C-381.7590367 1249.83835445 -383.73184017 1251.18899904 -385.69921875 1252.55078125 C-404.17495993 1265.25672393 -423.99129919 1275.93491199 -444 1286 C-444.89412598 1286.45439453 -445.78825195 1286.90878906 -446.70947266 1287.37695312 C-479.41105039 1303.90912008 -514.87539401 1316.83661655 -550.51782227 1325.39233398 C-552.49360421 1325.87602841 -554.46442386 1326.3799817 -556.43334961 1326.89086914 C-566.65581168 1329.5346303 -576.92711996 1331.66550618 -587.3125 1333.5625 C-588.54932022 1333.78986343 -588.54932022 1333.78986343 -589.81112671 1334.02182007 C-603.48812763 1336.52107439 -617.11963455 1338.49396278 -630.97607422 1339.72363281 C-633.86506543 1339.98766786 -636.74566326 1340.29710764 -639.62890625 1340.6171875 C-732.72931535 1350.27447469 -831.04634541 1330.5249749 -929 1283 C-930.03382813 1282.484375 -931.06765625 1281.96875 -932.1328125 1281.4375 C-966.92690246 1263.99503193 -999.1805016 1241.96896381 -1029 1217 C-1029.91023926 1216.23840576 -1029.91023926 1216.23840576 -1030.83886719 1215.46142578 C-1032.6269399 1213.959464 -1034.40884456 1212.4505984 -1036.1875 1210.9375 C-1036.68483643 1210.51581543 -1037.18217285 1210.09413086 -1037.69458008 1209.65966797 C-1048.27372344 1200.56876843 -1058.29102444 1190.87538342 -1068.13183594 1180.99853516 C-1069.8914348 1179.23351456 -1071.65640397 1177.47398867 -1073.421875 1175.71484375 C-1079.16168512 1169.97870623 -1084.76342712 1164.20571909 -1090 1158 C-1090.94869808 1156.91637025 -1091.8991728 1155.83429291 -1092.8515625 1154.75390625 C-1100.652331 1145.80993367 -1107.89530941 1136.50274736 -1115 1127 C-1115.71736328 1126.04673828 -1115.71736328 1126.04673828 -1116.44921875 1125.07421875 C-1157.9104874 1069.90866523 -1185.97912274 1008.05099693 -1205 942 C-1205.25168945 941.13648926 -1205.50337891 940.27297852 -1205.76269531 939.38330078 C-1211.95814535 917.89811651 -1215.62751275 895.7375452 -1218.75 873.625 C-1218.85086914 872.9239212 -1218.95173828 872.22284241 -1219.05566406 871.5005188 C-1222.26971023 848.9461752 -1223.41163083 826.39367519 -1223.375 803.625 C-1223.37478851 802.39719818 -1223.37457703 801.16939636 -1223.37435913 799.90438843 C-1223.28289386 746.20300401 -1215.55856556 692.18554585 -1199 641 C-1198.64744141 639.90268555 -1198.29488281 638.80537109 -1197.93164062 637.67480469 C-1176.44098417 571.48284303 -1142.38731276 510.55547308 -1098 457 C-1097.28263672 456.13181641 -1097.28263672 456.13181641 -1096.55078125 455.24609375 C-1085.86987416 442.35121712 -1074.42643895 430.2545269 -1062.57128906 418.44091797 C-1060.7338424 416.60889005 -1058.9018835 414.77149395 -1057.0703125 412.93359375 C-1051.21608351 407.0757607 -1045.33859778 401.33843896 -1039 396 C-1037.91629085 395.05139262 -1036.83421546 394.10091506 -1035.75390625 393.1484375 C-957.43650112 324.83392434 -858.76045406 282.14564589 -730.5 264.3125 C-729.33283447 264.19302002 -728.16566895 264.07354004 -726.96313477 263.95043945 C-710.92501676 262.40299021 -694.85850775 261.76218292 -678.75 261.75 C-677.92561432 261.74932526 -677.10122864 261.74865051 -676.25186157 261.74795532 C-611.64358483 261.83026474 -551.27154057 275.23238871 -491 298 C-490.83274414 297.40791748 -490.66548828 296.81583496 -490.49316406 296.20581055 C-473.59567337 237.98885184 -437.46543539 184.30622247 -397 140 C-395.70449219 138.56527344 -395.70449219 138.56527344 -394.3828125 137.1015625 C-386.34283635 128.22214568 -378.13089434 119.50755033 -369.00390625 111.7265625 C-366.74766614 109.78258954 -364.56636107 107.76676482 -362.375 105.75 C-356.7174035 100.64689994 -350.75419829 95.98591373 -344.72314453 91.33789062 C-343.15600887 90.12112901 -341.60626487 88.88205044 -340.05859375 87.640625 C-324.72231116 75.46962044 -308.04415953 64.63027728 -291 55 C-290.19949219 54.54705566 -289.39898438 54.09411133 -288.57421875 53.62744141 C-240.81054599 26.76479804 -188.37972193 7.79840588 -134 0 C-132.83581543 -0.17901855 -131.67163086 -0.35803711 -130.47216797 -0.54248047 C-87.83617498 -6.89685749 -42.57705671 -6.75218986 0 0 Z " fill="#FDFDFD" transform="translate(1427,370)"/>
<path d="M0 0 C0.64634399 0.07541016 1.29268799 0.15082031 1.95861816 0.22851562 C33.24340205 3.91189514 63.92592783 9.49897654 93.98388672 19.04711914 C97.1888344 20.05965846 100.40426906 21.03372351 103.62109375 22.0078125 C109.23245104 23.7320288 114.75100945 25.63543767 120.25 27.6875 C121.08917969 27.99494141 121.92835938 28.30238281 122.79296875 28.61914062 C128.8695403 30.8695403 128.8695403 30.8695403 130 32 C129.94919054 37.71606383 128.77296266 43.36081822 127.625 48.9375 C125.7786049 57.92223096 124.23635392 66.91007716 123 76 C122.86029785 76.99209473 122.7205957 77.98418945 122.57666016 79.00634766 C115.76788249 129.43746356 117.92172898 183.6520115 130.27685547 233.08056641 C130.99685824 235.98731629 131.66402581 238.90161372 132.31640625 241.82421875 C134.35855823 250.88715932 136.69190433 259.71904481 139.7890625 268.48046875 C140.7102977 271.15799427 141.53095952 273.80947414 142.3125 276.52734375 C144.31793831 283.27112158 146.83489034 289.81782646 149.375 296.375 C149.63433319 297.04552399 149.89366638 297.71604797 150.16085815 298.40689087 C170.49170974 350.74125255 200.20131572 397.57678435 238 439 C238.92733663 440.02060324 239.85440875 441.04144687 240.78125 442.0625 C243.18534032 444.71030179 245.59201408 447.35573989 248 450 C246.59506915 454.62426988 244.66689765 458.79384639 242.4375 463.0625 C239.12699553 469.54415979 236.11598621 476.12280303 233.25 482.8125 C232.88575928 483.6588501 232.52151855 484.5052002 232.14624023 485.37719727 C225.45814049 501.13971074 221.21060712 517.44637746 217 534 C216.76716309 534.8981543 216.53432617 535.79630859 216.29443359 536.72167969 C209.47522914 563.45027596 209.36089336 591.59404834 210 619 C210.02078613 619.92925293 210.04157227 620.85850586 210.06298828 621.81591797 C211.9851708 691.76912335 244.01605426 762.31615528 290.7421875 813.51953125 C292.28281939 815.21209396 293.80830927 816.91853326 295.3203125 818.63671875 C299.61936397 823.51140593 303.94390435 827.91209287 309 832 C307.42584195 835.79351705 305.04288749 838.21537354 302.16015625 841.10546875 C301.43777016 841.83072502 301.43777016 841.83072502 300.70079041 842.57063293 C299.67855488 843.59422728 298.65379795 844.61530894 297.62670898 845.6340332 C296.09195579 847.15824649 294.56795721 848.69260468 293.04492188 850.22851562 C287.43735524 855.8433047 281.68962998 861.08042498 275.45825195 866.01318359 C272.92018361 868.06450946 270.51975383 870.22140934 268.125 872.4375 C262.36385594 877.66587368 256.24094963 882.36752583 250 887 C249.33468262 887.49516113 248.66936523 887.99032227 247.98388672 888.50048828 C198.2178312 925.38510581 143.33946378 951.60368738 84 969 C82.22592773 969.52025757 82.22592773 969.52025757 80.41601562 970.05102539 C73.43996987 972.07182649 66.45917294 973.96039013 59.375 975.5625 C58.44695557 975.77302002 57.51891113 975.98354004 56.56274414 976.20043945 C47.80205068 978.13413614 38.99511012 979.49321902 30.10986328 980.70458984 C27.35701156 981.09002731 24.61729029 981.54602731 21.875 982 C15.3111566 983.01178415 8.72010958 983.78693535 2.125 984.5625 C0.52954346 984.75295898 0.52954346 984.75295898 -1.09814453 984.94726562 C-17.39130557 986.82295159 -33.55323971 987.24097033 -49.9375 987.25 C-51.04326385 987.25067474 -52.14902771 987.25134949 -53.28829956 987.25204468 C-71.72299835 987.23425265 -89.71376057 986.43294333 -108 984 C-109.34502832 983.82647586 -110.69008099 983.65314041 -112.03515625 983.47998047 C-193.81182113 972.81175281 -272.31020829 941.52076184 -339 893 C-340.04414063 892.24203125 -341.08828125 891.4840625 -342.1640625 890.703125 C-350.67035601 884.42084893 -358.86014368 877.74647471 -367 871 C-367.59570801 870.50628906 -368.19141602 870.01257812 -368.80517578 869.50390625 C-384.78111179 856.19288082 -400.7006853 841.91861392 -414.20703125 826.0703125 C-416.33146824 823.6172589 -418.54188637 821.25296853 -420.75 818.875 C-425.97786243 813.13537393 -430.74578503 807.10591568 -435.47998047 800.95703125 C-437.07419144 798.90447823 -438.69269801 796.87303364 -440.31640625 794.84375 C-470.93210452 756.39181381 -494.98682078 712.03933293 -512 666 C-512.25479126 665.31081482 -512.50958252 664.62162964 -512.77209473 663.91156006 C-523.01213367 636.09084669 -530.47757364 608.14223606 -535.875 579 C-536.02079498 578.21297699 -536.16658997 577.42595398 -536.31680298 576.61508179 C-541.50356624 548.34371569 -543.4167523 520.03612892 -543.375 491.3125 C-543.37545319 490.0850708 -543.37590637 488.8576416 -543.37637329 487.59301758 C-543.34664393 459.97377352 -541.00259 433.13805161 -536 406 C-535.68034695 404.19672838 -535.36122631 402.39336218 -535.04296875 400.58984375 C-527.23811662 357.59326959 -512.99375332 316.29851261 -494 277 C-493.54125488 276.04013184 -493.08250977 275.08026367 -492.60986328 274.09130859 C-478.32479725 244.28145708 -460.41494492 216.00348495 -440 190 C-439.30003906 189.10023438 -438.60007812 188.20046875 -437.87890625 187.2734375 C-430.31924523 177.6907686 -422.37140462 168.40009944 -414.15625 159.375 C-412.74789922 157.82377306 -411.35144165 156.26164127 -409.96875 154.6875 C-401.26605248 144.81578342 -391.99959793 135.14477894 -381.9296875 126.65234375 C-379.51465807 124.58441369 -377.20434275 122.41392566 -374.875 120.25 C-369.14749949 115.03318197 -363.13181991 110.27155436 -356.99658203 105.54638672 C-354.82972911 103.8681223 -352.67784174 102.17182083 -350.52734375 100.47265625 C-342.23444994 93.93570929 -333.90273949 87.69321685 -325 82 C-323.79953798 81.20238889 -322.60039927 80.40278377 -321.40234375 79.6015625 C-276.13668266 49.51824273 -225.53452486 26.33281558 -172.59667969 13.63085938 C-170.01784159 13.00433459 -167.45010979 12.34400427 -164.8828125 11.671875 C-112.08948756 -2.08669623 -54.20439156 -6.35701945 0 0 Z " fill="#EDC8BB" transform="translate(792,680)"/>
<path d="M0 0 C1.83753342 0.00173721 1.83753342 0.00173721 3.71218872 0.00350952 C22.84146658 0.03920574 41.66239406 0.64086833 60.625 3.3125 C61.47223633 3.42996582 62.31947266 3.54743164 63.19238281 3.66845703 C67.31569938 4.26582491 71.39339551 4.99141303 75.47070312 5.85595703 C77.9924121 6.39036272 80.51964376 6.89471132 83.046875 7.40234375 C95.81108206 10.01853004 108.24471614 13.25889078 120.625 17.3125 C122.26927979 17.84834717 122.26927979 17.84834717 123.94677734 18.39501953 C145.59337755 25.50777037 166.5089691 33.79667809 186.72558594 44.328125 C188.65570875 45.32841487 190.59638923 46.30559204 192.5390625 47.28125 C210.6161538 56.47365717 227.90457793 67.36305325 243.83984375 79.90820312 C245.62319001 81.31107617 247.41920159 82.69611887 249.21875 84.078125 C269.19593397 99.49192306 287.78809447 116.51077582 304.625 135.3125 C305.37958496 136.14998779 305.37958496 136.14998779 306.14941406 137.00439453 C325.77314496 158.90830219 342.48300308 183.56642671 356.625 209.3125 C357.10678711 210.18567871 357.58857422 211.05885742 358.08496094 211.95849609 C375.1612398 243.13909246 387.53275774 276.04844189 395.51171875 310.6328125 C396.14861168 313.38090278 396.8441851 316.0503674 397.6484375 318.7578125 C398.94591383 323.48062634 399.76397636 328.23327655 400.5625 333.0625 C400.73434814 334.09874512 400.90619629 335.13499023 401.08325195 336.20263672 C404.66181892 358.47112069 406.84141878 380.94142392 406.8125 403.5 C406.81256042 404.23184509 406.81262085 404.96369019 406.81268311 405.7177124 C406.79608172 419.97830361 406.02744821 434.11772057 404.625 448.3125 C404.55023437 449.09173828 404.47546875 449.87097656 404.3984375 450.67382812 C397.50464391 520.05858402 369.16336485 591.73701872 326.02929688 646.52734375 C324.62642383 648.31069001 323.24138113 650.10670159 321.859375 651.90625 C313.9019753 662.21714701 305.73476899 672.60749568 296.30932617 681.62573242 C294.58239022 683.35517154 293.01076379 685.16021152 291.4296875 687.0234375 C287.70672902 691.30271137 283.71269114 695.20118861 279.5625 699.0625 C278.82008057 699.75569336 278.07766113 700.44888672 277.31274414 701.16308594 C267.86550898 709.93400217 258.16096841 718.26913234 247.9375 726.125 C246.91160767 726.92695801 246.91160767 726.92695801 245.86499023 727.74511719 C244.17771401 729.01710637 242.40645804 730.17616168 240.625 731.3125 C236.96993364 730.09414455 236.83154666 729.3599316 235.12890625 726.03515625 C234.65912354 725.13821045 234.18934082 724.24126465 233.70532227 723.31713867 C233.20444092 722.34623291 232.70355957 721.37532715 232.1875 720.375 C213.94528289 686.04537728 187.64072383 652.94797629 156.625 629.3125 C155.6246875 628.49523438 154.624375 627.67796875 153.59375 626.8359375 C126.37585191 604.6405104 95.27372812 587.64899365 62.11987305 576.19018555 C60.22390609 575.52319257 58.33610153 574.83294447 56.45239258 574.13208008 C48.25368942 571.10777624 40.07651869 568.70883608 31.5625 566.75 C29.64594604 566.30503174 29.64594604 566.30503174 27.69067383 565.85107422 C14.13101146 562.77657054 0.43379612 560.90368025 -13.375 559.3125 C-14.05622421 559.22661621 -14.73744843 559.14073242 -15.4393158 559.05224609 C-20.8170347 558.40079496 -26.11256495 558.1394807 -31.52734375 558.109375 C-32.3766597 558.10240601 -33.22597565 558.09543701 -34.10102844 558.08825684 C-36.83823649 558.07092198 -39.57523928 558.064533 -42.3125 558.0625 C-43.24984985 558.06149292 -44.18719971 558.06048584 -45.1529541 558.05944824 C-68.0419062 558.0760578 -89.9259209 560.88116875 -112.375 565.3125 C-112.7560791 564.40411377 -113.1371582 563.49572754 -113.52978516 562.55981445 C-125.6702456 533.67887942 -138.32693397 505.28555803 -154.375 478.3125 C-154.90448242 477.42127441 -155.43396484 476.53004883 -155.97949219 475.61181641 C-166.42231233 458.15104024 -177.94616077 441.41903498 -190.375 425.3125 C-190.78250488 424.78027832 -191.19000977 424.24805664 -191.60986328 423.69970703 C-198.84833973 414.259516 -206.47008912 405.20060875 -214.375 396.3125 C-214.83390625 395.79429687 -215.2928125 395.27609375 -215.765625 394.7421875 C-222.77201363 386.87030381 -230.18743571 379.39880431 -237.625 371.9375 C-238.33292191 371.22555984 -238.33292191 371.22555984 -239.05514526 370.49923706 C-244.65260363 364.87768162 -250.33951875 359.45963488 -256.375 354.3125 C-257.42346504 353.38721527 -258.47041721 352.46021256 -259.515625 351.53125 C-295.44430119 319.95896181 -337.35132839 294.73278075 -381.375 276.3125 C-379.96098079 268.77633059 -377.48677294 262.01341677 -374.5625 254.9375 C-373.83933594 253.17986328 -373.83933594 253.17986328 -373.1015625 251.38671875 C-359.99577682 219.9797592 -343.62534636 190.65732801 -323.375 163.3125 C-322.97458496 162.77173828 -322.57416992 162.23097656 -322.16162109 161.67382812 C-315.61544473 152.88934982 -308.61517317 144.53107495 -301.375 136.3125 C-300.5603125 135.384375 -299.745625 134.45625 -298.90625 133.5 C-292.7741429 126.66929842 -286.33681066 120.14244252 -279.875 113.625 C-279.00883057 112.74577881 -278.14266113 111.86655762 -277.25024414 110.96069336 C-272.02016721 105.72372503 -266.60738241 100.90647705 -260.83056641 96.2800293 C-258.87928634 94.71656081 -256.97069099 93.13065574 -255.08984375 91.484375 C-185.76952607 31.03627801 -91.20342292 -0.26776195 0 0 Z " fill="#DCCCCE" transform="translate(1358.375,410.6875)"/>
<path d="M0 0 C2 1 2 1 2.63842773 2.72387695 C2.81833252 3.47113037 2.9982373 4.21838379 3.18359375 4.98828125 C3.38758789 5.83011963 3.59158203 6.67195801 3.80175781 7.53930664 C4.01155273 8.45446045 4.22134766 9.36961426 4.4375 10.3125 C4.65631836 11.25150146 4.87513672 12.19050293 5.10058594 13.15795898 C9.42089503 32.24038773 11.21830907 51.27007096 11.1875 70.8125 C11.18656342 71.582453 11.18562683 72.35240601 11.18466187 73.14569092 C11.01315327 138.472723 -12.33703511 202.05126843 -56 251 C-56.68425049 251.76884521 -56.68425049 251.76884521 -57.38232422 252.55322266 C-66.91669058 263.21556095 -76.78767068 273.09224566 -88 282 C-89.07894531 282.91458984 -89.07894531 282.91458984 -90.1796875 283.84765625 C-112.32002494 302.40299244 -138.22923817 315.59859027 -165 326 C-166.13332764 326.45197754 -166.13332764 326.45197754 -167.28955078 326.91308594 C-180.45088477 332.1357887 -194.18027669 335.05757268 -208 338 C-208.80711426 338.17982422 -209.61422852 338.35964844 -210.44580078 338.54492188 C-226.22183882 341.92997032 -241.79953322 342.40387726 -257.875 342.375 C-258.96060211 342.37478851 -260.04620422 342.37457703 -261.16470337 342.37435913 C-277.49262004 342.34260593 -293.00977666 341.52091583 -309 338 C-310.86281394 337.63174279 -312.72610008 337.26586635 -314.58984375 336.90234375 C-347.09847803 330.3013016 -379.59864518 316.80233481 -407 298 C-405.54903938 293.70986239 -403.3870919 290.70807135 -400.5625 287.1875 C-394.66991443 279.70450936 -389.29289643 271.91496206 -384 264 C-383.56075195 263.34580078 -383.12150391 262.69160156 -382.66894531 262.01757812 C-340.28673469 198.61705845 -311.74228317 126.55276254 -299.46142578 51.3371582 C-299 49 -299 49 -298 47 C-292.56726075 47.57388091 -287.17055822 48.25100775 -281.76733398 49.0534668 C-224.46706509 57.38140942 -162.3275361 55.97604106 -106.25634766 40.61572266 C-103.66833832 39.90949462 -101.07426422 39.22763213 -98.48046875 38.54296875 C-66.89370297 30.0781746 -36.37578187 18.7953846 -7.38549805 3.61962891 C-5.97264526 2.88752197 -5.97264526 2.88752197 -4.53125 2.140625 C-3.70173828 1.70266602 -2.87222656 1.26470703 -2.01757812 0.81347656 C-1.35177734 0.5450293 -0.68597656 0.27658203 0 0 Z " fill="#E3C8CE" transform="translate(1574,1210)"/>
<path d="M0 0 C4.86019176 1.04600224 8.93979089 3.38788879 13.3125 5.6875 C14.23313232 6.17154297 15.15376465 6.65558594 16.10229492 7.15429688 C32.71987194 16.01401778 48.7128674 26.00700577 64 37 C64.76296387 37.5465625 65.52592773 38.093125 66.31201172 38.65625 C75.52875141 45.28268833 84.52951915 52.05517144 93.1015625 59.5 C95.81213825 61.83796291 98.57696791 64.08063862 101.375 66.3125 C112.92329803 75.7596034 123.44386792 86.35118689 134 96.875 C134.49463745 97.36695862 134.9892749 97.85891724 135.49890137 98.36578369 C141.21955211 104.06290147 146.77751382 109.8391786 152 116 C152.87702372 117.00961909 153.75459094 118.01876643 154.6328125 119.02734375 C162.10844677 127.7567286 169.12719002 136.79023159 176 146 C176.53383301 146.71285156 177.06766602 147.42570313 177.61767578 148.16015625 C200.56331687 178.93118938 219.78999079 212.79078797 234.9375 248.0625 C235.27370361 248.83561523 235.60990723 249.60873047 235.95629883 250.40527344 C238.12349045 255.62952866 238.12349045 255.62952866 237 259 C234.58935547 260.32763672 234.58935547 260.32763672 231.3671875 261.6796875 C230.17955811 262.18967285 228.99192871 262.6996582 227.76831055 263.22509766 C227.13355804 263.4934845 226.49880554 263.76187134 225.84481812 264.03839111 C200.44346142 274.82669719 177.58562084 288.86588851 156 306 C155.07832031 306.72703125 154.15664062 307.4540625 153.20703125 308.203125 C137.42196873 320.8676196 122.47707944 335.05185335 110 351 C108.4804626 352.8968722 106.95968523 354.79275195 105.4375 356.6875 C104.29103301 358.12449468 103.1449484 359.56179506 102 361 C96.91175717 357.21643482 93.21462506 352.74296277 89.26953125 347.796875 C87.35561105 345.43824012 85.38401771 343.21789905 83.3125 341 C68.78671274 324.82157826 56.87159738 305.77779309 46 287 C45.60844727 286.32662598 45.21689453 285.65325195 44.81347656 284.95947266 C28.36170752 256.50361266 16.45424207 226.43384945 7 195 C6.74879395 194.16500977 6.49758789 193.33001953 6.23876953 192.46972656 C-4.17916403 157.40589744 -8.22509043 121.48284593 -8.1875 85 C-8.18722809 84.00521637 -8.18695618 83.01043274 -8.18667603 81.98550415 C-8.16812441 67.21589187 -7.7640986 52.67698253 -6 38 C-5.76790991 35.91019168 -5.53615221 33.82034643 -5.3046875 31.73046875 C-4.07594525 21.01456011 -2.60176413 10.48086544 0 0 Z " fill="#E2CBC6" transform="translate(964,731)"/>
<path d="M0 0 C0.886875 0.14453613 1.77375 0.28907227 2.6875 0.43798828 C53.6911334 8.80577189 100.69953246 32.58049564 139 67 C139.57508301 67.51336914 140.15016602 68.02673828 140.74267578 68.55566406 C147.24338216 74.37692317 153.4080203 80.28726487 159 87 C159.88560781 88.00343693 160.77387339 89.00453134 161.6640625 90.00390625 C175.77845881 105.95638084 187.03766725 123.57257187 197.0625 142.3125 C197.45719482 143.04855469 197.85188965 143.78460937 198.25854492 144.54296875 C201 149.75425301 201 149.75425301 201 152 C178.55733706 164.26655215 155.62024259 174.3670636 131.375 182.4375 C130.63835114 182.68298584 129.90170227 182.92847168 129.14273071 183.18139648 C114.34024685 188.08430401 99.38687194 192.6041474 84.0625 195.5625 C83.02673828 195.76520508 81.99097656 195.96791016 80.92382812 196.17675781 C72.97466783 197.69666009 65.00012355 199.02830069 57 200.25 C55.95207275 200.41314697 54.90414551 200.57629395 53.82446289 200.74438477 C36.34493992 203.30053884 18.692094 203.2737829 1.0625 203.3125 C-0.71740326 203.31692612 -0.71740326 203.31692612 -2.53326416 203.32144165 C-27.91236083 203.33574731 -52.09692353 200.8319706 -77 196 C-76.9278125 194.72253906 -76.855625 193.44507813 -76.78125 192.12890625 C-75.32813681 164.35715141 -75.53183713 136.70857367 -78 109 C-78.0608075 108.31377563 -78.12161499 107.62755127 -78.18426514 106.92053223 C-80.25200485 83.93459026 -84.06607712 61.53433331 -89 39 C-89.24959473 37.84967285 -89.49918945 36.6993457 -89.75634766 35.51416016 C-91.76836576 26.28691894 -93.79871273 17.07278971 -96.51953125 8.0234375 C-97 6 -97 6 -97 2 C-65.44825363 -4.50998893 -31.76132632 -5.48679254 0 0 Z " fill="#E0CACF" transform="translate(1358,1016)"/>
<path d="M0 0 C5.18690862 3.2971047 10.10670965 6.82412434 14.9375 10.625 C55.39078152 42.18072094 103.0799294 63.65178169 150.97476196 81.13510132 C155.8003301 82.90016505 155.8003301 82.90016505 158 84 C156.80542373 96.28452311 154.41037485 108.1466203 151.64257812 120.1640625 C151.06129951 122.72946235 150.51610442 125.29897221 149.984375 127.875 C138.34480742 182.4832734 113.17733607 236.89820368 82 283 C81.56123535 283.65726074 81.1224707 284.31452148 80.67041016 284.99169922 C75.33126345 292.98775803 69.76584228 300.80576621 64 308.5 C63.44779785 309.24894531 62.8955957 309.99789063 62.32666016 310.76953125 C61.8063623 311.45402344 61.28606445 312.13851563 60.75 312.84375 C60.29109375 313.45412109 59.8321875 314.06449219 59.359375 314.69335938 C58 316 58 316 55 316 C52.84090824 314.1190184 50.86248384 312.23734301 48.875 310.1875 C48.29459961 309.59727051 47.71419922 309.00704102 47.11621094 308.39892578 C42.85614285 304.01272951 38.89085955 299.45064266 35.09765625 294.65234375 C33.72032255 292.9107989 32.31194792 291.19327472 30.87109375 289.50390625 C0.6232589 253.95323094 -17.88824888 208.62894422 -25.3125 162.875 C-25.47186035 161.89337891 -25.6312207 160.91175781 -25.79541016 159.90039062 C-34.04719459 105.7133696 -24.82797232 48.806712 0 0 Z " fill="#E3C9CA" transform="translate(1074,1162)"/>
<path d="M0 0 C660.66 0 1321.32 0 2002 0 C2002 660.66 2002 1321.32 2002 2002 C1341.34 2002 680.68 2002 0 2002 C0 1341.34 0 680.68 0 0 Z M2 2 C2 661.34 2 1320.68 2 2000 C661.34 2000 1320.68 2000 2000 2000 C2000 1340.66 2000 681.32 2000 2 C1340.66 2 681.32 2 2 2 Z " fill="#FEFEFE" transform="translate(0,0)"/>
<path d="M0 0 C8.60721784 31.18894331 15.35680127 62.70253994 18 95 C18.10151367 96.19689453 18.20302734 97.39378906 18.30761719 98.62695312 C19.54862906 113.71483885 20.18176801 128.74213118 20.1875 143.875 C20.18899551 144.92255463 20.18899551 144.92255463 20.19052124 145.99127197 C20.18931336 153.40350186 20.00919233 160.65307981 19 168 C-16.86070291 161.16759239 -55.59480235 138.77910643 -85 118 C-86.10934836 117.22782631 -87.218725 116.45569324 -88.328125 115.68359375 C-98.92091949 108.25806537 -109.09057528 100.31257465 -119 92 C-117.62347692 82.99003078 -106.60355509 74.29132614 -100.5 67.72265625 C-98.53733489 65.58519128 -96.65565074 63.42632712 -94.8125 61.1875 C-92.20530265 58.10626676 -89.30401474 55.52675967 -86.2265625 52.921875 C-84.68857336 51.59434753 -83.18478607 50.22652057 -81.7109375 48.828125 C-63.96008649 32.01152931 -25.73801942 0 0 0 Z " fill="#E1CACB" transform="translate(1218,1032)"/>
</svg>
