<?xml version="1.0" encoding="UTF-8"?>
<!DOCTYPE svg PUBLIC "-//W3C//DTD SVG 1.1//EN" "http://www.w3.org/Graphics/SVG/1.1/DTD/svg11.dtd">
<svg xmlns="http://www.w3.org/2000/svg" version="1.1" width="500px" height="500px" style="shape-rendering:geometricPrecision; text-rendering:geometricPrecision; image-rendering:optimizeQuality; fill-rule:evenodd; clip-rule:evenodd" xmlns:xlink="http://www.w3.org/1999/xlink">
<g><path style="opacity:0.983" fill="#f5921d" d="M 227.5,127.5 C 231.182,127.335 234.848,127.501 238.5,128C 248.355,130.952 258.355,133.285 268.5,135C 272.579,137.075 276.079,139.908 279,143.5C 298.261,172.951 307.594,205.285 307,240.5C 306.344,244.813 304.844,248.813 302.5,252.5C 281.584,267.751 258.251,274.585 232.5,273C 226.656,271.667 222.822,268.167 221,262.5C 217.262,229.331 213.428,196.164 209.5,163C 210.177,153.461 212.343,144.294 216,135.5C 219.074,131.715 222.907,129.049 227.5,127.5 Z"/></g>
<g><path style="opacity:0.972" fill="#f6921e" d="M 318.5,140.5 C 340.227,143.941 357.394,154.608 370,172.5C 373.216,178.264 375.883,184.264 378,190.5C 379.491,199.005 378.157,207.005 374,214.5C 363.268,225.383 350.768,233.716 336.5,239.5C 329.394,237.23 323.894,232.896 320,226.5C 310.739,205.391 307.739,183.391 311,160.5C 311.449,152.979 313.949,146.312 318.5,140.5 Z"/></g>
<g><path style="opacity:0.975" fill="#f5921d" d="M 138.5,164.5 C 144.842,164.334 151.175,164.5 157.5,165C 169.364,167.761 181.198,170.261 193,172.5C 202.073,190.791 206.073,210.124 205,230.5C 204.654,232.848 203.487,234.681 201.5,236C 187.185,242.826 172.185,247.326 156.5,249.5C 139.615,249.42 130.282,241.086 128.5,224.5C 131.959,215.215 130.793,206.548 125,198.5C 121.362,189.207 122.029,180.207 127,171.5C 130.257,168.048 134.09,165.715 138.5,164.5 Z"/></g>
<g><path style="opacity:1" fill="#fffaf6" d="M 340.5,167.5 C 346.428,166.123 350.095,168.289 351.5,174C 350.131,179.856 346.464,181.856 340.5,180C 336.645,175.91 336.645,171.744 340.5,167.5 Z"/></g>
</svg>
